<svg xmlns="http://www.w3.org/2000/svg" viewBox="0 0 320 220"><defs><linearGradient id="m"><stop stop-color="#4f5548"/><stop offset="1" stop-color="#a1a58f"/></linearGradient></defs><path fill="url(#m)" d="M171.777,195.194L172.787,195.284L174.555,196.244L175.881,196.643L175.944,197.095L176.955,198.199L176.639,198.977L175.818,198.525L174.176,198.398L173.797,197.765L173.797,196.425L172.534,196.136ZM171.714,204.61L172.282,204.537L173.671,206.646L176.197,208.985L175.565,208.913L174.871,209.309L173.797,208.517L172.976,207.222L172.092,205.078ZM163.757,194.922L164.262,194.795L164.325,195.538L163.631,195.411ZM157.19,183.542L157.695,183.852L158.39,183.596L158.39,184.143L157.316,184.216L156.748,183.834ZM154.601,199.392L155.485,199.266L156.748,199.899L157.253,200.459L156.432,200.73L155.169,200.35ZM148.602,182.52L149.739,182.648L150.56,183.049L151.507,182.958L152.707,183.742L153.906,183.815L154.348,183.104L155.611,183.469L154.917,184.253L153.149,184.453L152.075,185.018L149.423,184.581L149.36,183.469ZM142.856,184.125L144.245,183.979L144.813,183.596L145.634,183.742L146.455,183.396L146.455,184.271L147.592,184.508L147.655,185.383L145.066,186.366L144.056,185.692ZM139.32,183.359L140.33,183.049L140.709,182.539L141.088,183.177L141.909,183.651L140.583,183.761ZM73.08,5.264L82.867,5.346L83.436,5.224L88.298,5.244L91.834,5L93.602,5.163L100.864,5.122L103.2,5.02L109.199,5.041L112.041,5.142L121.765,5.305L128.964,5.386L141.404,5.386L147.213,5.346L147.213,5.366L147.213,34.53L147.276,35.208L147.276,50.21L147.213,57.953L147.15,58.208L147.15,67.163L147.087,69.545L147.213,74.668L148.855,76.164L156.117,82.563L163.315,89.052L167.293,92.556L173.545,98.278L181.438,105.487L185.353,109.033L193.373,116.518L213.137,135.161L227.913,149.332L232.334,153.677L241.616,162.778L241.553,165.488L242.563,166.538L243.005,167.808L244.458,168.967L246.099,173.355L245.973,174.419L246.794,174.547L248.752,176.379L249.636,176.727L250.33,177.715L250.393,178.611L248.815,179.799L248.752,180.147L247.678,180.53L247.047,181.261L245.594,181.79L245.089,182.301L245.089,183.56L243.321,185.674L243.763,186.038L243.889,187.04L243.51,187.149L243.447,188.077L243.889,189.241L244.016,190.585L243.51,190.803L243.258,192.8L243.51,193.635L242.942,194.07L241.174,196.57L239.974,196.733L240.479,197.656L239.911,198.832L240.858,199.573L240.732,202.138L240.29,203.347L241.174,204.574L241.364,204.267L242.184,204.718L242.626,204.483L243.637,204.628L244.584,207.078L244.521,208.499L243.384,209.632L243.51,210.351L241.932,210.818L240.416,210.585L240.101,211.142L213.832,213.404L197.793,215L197.603,213.242L197.035,212.13L196.53,211.77L195.646,212.183L195.456,210.998L195.52,209.722L195.014,208.985L195.583,207.888L195.014,204.988L194.194,202.698L193.625,201.723L191.099,198.235L189.521,197.131L188.889,196.208L187.942,195.538L187.374,195.574L186.174,193.852L184.532,192.782L183.648,192.51L182.385,191.475L180.807,189.877L179.291,189.168L179.165,190.022L177.839,190.44L176.702,190.186L176.071,189.731L175.123,189.622L174.871,188.932L175.439,188.313L175.502,187.531L174.618,185.419L173.924,184.253L172.85,183.341L170.64,183.323L169.251,183.469L168.241,184.125L167.356,183.432L165.588,183.141L163.252,182.064L162.494,182.028L160.979,181.06L159.905,178.483L159.274,178.3L158.2,177.331L157.948,177.386L156.685,176.196L155.359,175.738L154.98,175.372L152.959,175.298L151.949,175.738L150.812,175.28L149.423,175.463L147.087,174.364L145.634,174.364L144.687,174.089L141.909,174.217L138.878,174.62L138.815,174.052L137.994,172.842L136.983,172.291L136.226,172.365L135.847,171.777L136.668,169.15L135.973,168.047L136.478,165.857L135.405,164.862L135.973,162.741L136.036,160.156L134.899,159.121L134.015,158.992L133.826,159.38L132.121,158.363L131.426,157.475L132.058,155.049L131.932,154.122L131.237,153.139L129.532,152.879L127.827,150.986L126.691,149.109L125.175,148.644L124.102,147.416L123.786,145.907L122.775,145.031L122.333,144.342L121.449,143.689L121.071,141.841L120.755,141.187L119.492,140.646L118.545,138.701L116.966,136.941L114.882,135.742L114.188,134.899L113.682,133.398L113.746,132.61L113.051,130.713L113.177,128.982L112.483,128.681L113.114,127.288L114.251,128.004L114.819,127.439L115.261,126.29L115.766,123.63L114.44,120.816L113.682,120.002L113.051,119.794L112.483,120.324L110.146,120.286L108.378,118.999L106.989,117.068L106.105,116.727L105.979,116.139L104.905,115.001L104.653,113.824L104.968,111.373L104.211,109.68L104.084,108.69L103.327,108.423L102.948,107.795L102.885,106.575L103.2,106.06L103.327,104.59L102.948,102.03L103.832,101.494L104.842,101.341L105.221,101.801L105.663,103.483L105.095,103.655L105.789,105.697L105.663,106.212L107.368,106.651L109.073,108.176L109.578,108.081L110.462,109.28L111.22,109.223L110.841,108.462L110.083,108.1L109.452,106.441L109.01,104.361L107.684,103.33L107.557,102.451L106.168,101.953L106.736,100.538L106.294,99.236L105.347,99.255L104.463,97.952L104.968,98.124L105.537,97.626L105.537,96.859L106.736,96.897L107.368,96.149L106.736,94.786L105.095,93.941L104.274,94.517L103.39,94.632L103.516,95.535L103.2,96.418L104.147,97.396L103.39,97.875L103.137,98.719L104.337,99.791L103.895,100.059L103.2,99.504L103.642,100.863L102.695,101.169L102.127,100.442L100.485,99.274L99.664,99.504L98.212,98.22L97.58,97.204L96.507,96.571L95.496,96.418L94.234,97.051L95.118,94.613L95.307,93.691L94.549,91.922L94.991,91.537L93.981,90.189L93.286,90.382L93.223,89.091L92.15,87.046L90.887,86.062L90.003,85.695L88.614,84.458L86.277,81.053L85.393,80.491L84.888,79.696L82.93,77.951L81.415,75.698L82.299,74.181L82.236,73.364L81.352,70.91L80.341,68.51L79.899,66.459L80.089,64.523L80.91,61.937L80.594,60.918L80.594,59.642L79.71,57.835L79.457,55.711L78.447,55.002L78.068,53.919L75.858,51.296L75.416,51.178L75.416,50.329L74.911,49.48L73.522,48.847L70.428,45.859L70.68,44.611L70.428,43.223L69.607,41.754L70.175,39.807L71.059,37.639L73.711,32.353L74.406,30.454L74.848,28.072L74.09,27.331L74.027,25.385L74.279,25.345L74.974,23.357L75.732,18.446L75.416,15.904L74.469,13.316L73.964,11.373L73.395,11.454L72.322,10.36L72.953,8.86L73.269,6.626Z"/></svg>